# xmcd
#
# Track frame offsets:
#	150
#	11124
#	23857
#	36898
#	47365
#	58812
#	72534
#	82089
#	93301
#	102265
#	112085
#	122909
#	134690
#	145393
#	159717
#	172347
#	185839
#
# Disc length: 2615 seconds
# Revision: 0
# Processed by: cddbd v1.5.2PL0 Copyright (c) Steve Scherf et al.
# Submitted via: dBpowerAMP V12.0
#
DISCID=080a3511
DTITLE=Various Artist - Good Ol' Nashville
DYEAR=2010
DGENRE=Country
TTITLE0=Hank Williams - Why Don't You Love Me?
TTITLE1=Hank Snow - I'm Movin' On
TTITLE2=The Delmore Brothers - Blues Stay Away from Me
TTITLE3=Johnnie and Jack - Poison Love
TTITLE4=Kitty Wells - It Wasn't God Who Made Honky Tonk Angels
TTITLE5=The Davis Sisters - I Forgot More Than You'll Ever Know
TTITLE6=Webb Pierce - In the Jailhouse Now
TTITLE7=Jean Shepard - A Satisfied Mind
TTITLE8=Chet Atkins - The Poor People of Paris (Jean's Song)
TTITLE9=Elvis Presley - Heartbreak Hotel
TTITLE10=Ferlin Husky - Gone
TTITLE11=Johnny Cash - I Still Miss Someone
TTITLE12=The Louvin Brothers - If I Could Only Win Your Love
TTITLE13=Lefty Frizzell - The Long Black Veil
TTITLE14=George Jones - White Lightning
TTITLE15=Ray Price - Heartaches By the Number
TTITLE16=Patsy Cline - How Can I Face Tomorrow?
EXTD=
EXTT0=
EXTT1=
EXTT2=
EXTT3=
EXTT4=
EXTT5=
EXTT6=
EXTT7=
EXTT8=
EXTT9=
EXTT10=
EXTT11=
EXTT12=
EXTT13=
EXTT14=
EXTT15=
EXTT16=
PLAYORDER=
